<svg xmlns="http://www.w3.org/2000/svg" xmlns:xlink="http://www.w3.org/1999/xlink" version="1.1" id="Layer_1" x="0px" y="0px" enable-background="new 0 0 1024 1024" xml:space="preserve" viewBox="331.6 347.02 362.85 311.66">

<path fill="#502570" opacity="1.000000" stroke="none" d=" M547.601562,584.614319   C551.381958,586.838257 555.234619,588.949219 558.927124,591.310547   C565.800232,595.705750 572.580078,600.246826 579.992920,604.936279   C581.056885,603.891663 581.926819,602.640564 581.935059,601.383789   C582.030640,586.841553 582.027588,572.298157 581.950928,557.755676   C581.942505,556.166077 581.312012,554.579712 580.970093,552.991882   C569.732788,538.190979 558.495483,523.390015 547.095459,507.807526   C546.905884,496.478149 546.846375,485.930176 546.897400,475.382721   C546.903259,474.179871 547.528992,472.980072 547.867310,471.778839   C558.049744,486.731873 568.232117,501.684906 578.707397,517.067993   C579.512146,516.009705 580.373474,515.282288 580.721008,514.361084   C590.240479,489.126129 599.620300,463.837982 609.293518,438.662445   C610.505310,435.508698 609.653015,433.524963 608.220825,431.001801   C602.698303,421.272186 597.364258,411.435516 592.186401,400.924133   C625.612488,400.143860 658.812134,400.072357 692.011780,400.053131   C692.703003,400.052734 693.394592,400.657532 694.085999,400.979950   C690.384155,411.043915 686.812378,421.158081 682.955383,431.162231   C672.376892,458.600647 661.694824,485.999237 651.023132,513.401611   C640.059937,541.552795 629.034546,569.679749 618.086243,597.836731   C611.020386,616.008728 604.050903,634.218201 597.018250,652.403259   C596.307251,654.241638 595.458923,656.026917 594.306824,658.684448   C578.397217,645.136047 562.848083,631.894714 547.114136,617.881226   C546.838318,610.661194 546.609436,604.211243 546.704346,597.765991   C546.768921,593.378601 547.286560,588.997986 547.601562,584.614319  z" data-index="1"/>
<path fill="#502570" opacity="1.000000" stroke="none" d=" M479.044250,618.025452   C474.641846,621.959412 470.316101,625.983398 465.821716,629.809326   C455.387817,638.691345 444.875671,647.481445 434.383728,656.295227   C433.650146,656.911438 432.822083,657.415222 431.615112,658.271118   C398.276337,572.165955 365.085938,486.444000 331.596191,399.948975   C344.809784,399.948975 356.909027,399.948975 369.941956,400.016327   C392.201416,400.048309 413.527161,400.012909 434.852905,399.977539   C431.293976,406.832886 427.795258,413.720459 424.150543,420.529846   C422.358215,423.878387 420.520142,427.244080 418.305969,430.316071   C414.294403,435.881775 417.789490,440.881622 419.536041,445.687134   C426.828094,465.750519 434.537720,485.662231 442.107910,505.624390   C443.500275,509.295990 444.955963,512.943604 446.757568,517.564514   C457.386444,502.141388 467.594879,487.328400 478.332764,472.453918   C478.933899,483.872375 479.005554,495.352264 479.077209,506.832184   C474.543793,513.273438 470.127930,519.801575 465.448212,526.134705   C459.159241,534.645569 452.631531,542.979736 446.309540,551.466675   C445.595184,552.425598 445.241760,553.879700 445.236694,555.106323   C445.172302,570.748718 445.199005,586.391541 445.224213,602.034241   C445.224915,602.481873 445.464386,602.929077 445.735596,603.875977   C456.759583,597.259399 467.581116,590.764343 478.775879,584.683105   C479.114166,596.073120 479.079224,607.049255 479.044250,618.025452  z" data-index="2"/>
<path fill="#D69F2F" opacity="1.000000" stroke="none" d=" M491.992249,555.000000   C491.994598,525.005554 492.036865,495.510925 491.954559,466.016693   C491.942657,461.750153 491.376373,457.481384 490.992249,453.220337   C489.696960,438.852081 493.785522,425.255310 496.949371,411.531433   C501.589783,391.402710 506.280365,371.285522 510.991150,351.173157   C511.333862,349.709930 512.013428,348.325562 513.716309,347.022095   C517.821228,364.428070 522.014709,381.813782 526.001770,399.246674   C528.930786,412.053619 531.768555,424.887726 534.268555,437.783051   C535.108154,442.114014 534.997375,446.674438 534.929749,451.123993   C534.854736,456.059967 534.055603,460.988739 534.048035,465.921356   C533.978638,510.912811 534.013123,555.904419 534.017334,600.895996   C534.017517,602.713257 534.017395,604.530518 534.017395,607.360962   C526.512085,600.982727 519.593811,595.103394 512.769714,589.304138   C506.073395,595.211670 499.450195,601.054749 491.992188,607.634277   C491.992188,589.583496 491.992188,572.541748 491.992249,555.000000  z" data-index="3"/>
<path fill="#D69F2F" opacity="1.000000" stroke="none" d=" M479.426697,568.913940   C472.149078,573.879578 464.871460,578.845276 456.959442,584.243835   C456.959442,574.600281 456.299225,565.492920 457.277832,556.565247   C457.680695,552.890137 461.449829,549.480042 463.969818,546.163696   C468.509613,540.189209 473.261902,534.376221 478.322937,528.470703   C478.846924,530.242554 479.064087,532.038513 479.085236,533.836731   C479.222809,545.528809 479.317780,557.221497 479.426697,568.913940  z" data-index="4"/>
<path fill="#D69F2F" opacity="1.000000" stroke="none" d=" M547.890015,528.017944   C554.643005,536.520325 561.413452,545.008972 568.116089,553.550903   C568.658569,554.242126 568.984497,555.296448 568.990906,556.185120   C569.054443,564.990906 569.029297,573.797302 569.029297,583.879578   C561.167664,578.767273 554.065857,574.149109 546.786072,568.758911   C546.638428,556.356323 546.621399,544.725159 546.751770,533.095764   C546.770752,531.399109 547.493103,529.710327 547.890015,528.017944  z" data-index="5"/>
<path fill="#CEC6D3" opacity="1.000000" stroke="none" d=" M694.446167,400.785217   C693.394592,400.657532 692.703003,400.052734 692.011780,400.053131   C658.812134,400.072357 625.612488,400.143860 592.137451,400.553406   C591.807373,400.280975 591.752686,399.664612 591.697937,399.048218   C593.030640,399.031097 594.363403,398.999176 595.696106,398.998993   C627.361511,398.994629 659.026978,398.973663 690.692139,399.059753   C692.064941,399.063477 693.434998,400.057678 694.446167,400.785217  z" data-index="6"/>
<path fill="#CEC6D3" opacity="1.000000" stroke="none" d=" M434.690857,399.574951   C413.527161,400.012909 392.201416,400.048309 370.406738,400.016632   C370.759735,399.617096 371.581940,398.993866 372.403595,398.994629   C393.112000,399.014008 413.820404,399.098969 434.690857,399.574951  z" data-index="7"/>
<path fill="#502570" opacity="1.000000" stroke="none" d=" M580.918396,553.458618   C581.312012,554.579712 581.942505,556.166077 581.950928,557.755676   C582.027588,572.298157 582.030640,586.841553 581.935059,601.383789   C581.926819,602.640564 581.056885,603.891663 580.304932,605.085876   C580.281311,603.278748 580.755493,601.532288 580.764771,599.783325   C580.845886,584.497559 580.843994,569.211426 580.918396,553.458618  z" data-index="8"/>
<path fill="#CEC6D3" opacity="1.000000" stroke="none" d=" M479.667023,568.593506   C479.317780,557.221497 479.222809,545.528809 479.085236,533.836731   C479.064087,532.038513 478.846924,530.242554 478.417755,528.129578   C481.654663,526.170349 479.903961,529.484924 479.908997,530.106201   C480.012024,542.827637 479.942474,555.550537 479.667023,568.593506  z" data-index="9"/>
<path fill="#CEC6D3" opacity="1.000000" stroke="none" d=" M547.801697,527.611084   C547.493103,529.710327 546.770752,531.399109 546.751770,533.095764   C546.621399,544.725159 546.638428,556.356323 546.591858,568.445923   C546.406067,555.349060 546.224304,541.793213 546.136230,528.236755   C546.133972,527.895935 547.164429,527.548523 547.801697,527.611084  z" data-index="10"/>
<path fill="#CEC6D3" opacity="1.000000" stroke="none" d=" M547.633911,471.478577   C547.528992,472.980072 546.903259,474.179871 546.897400,475.382721   C546.846375,485.930176 546.905884,496.478149 546.966309,507.491028   C546.691345,507.482727 546.115417,507.010651 546.113159,506.535889   C546.060852,495.421478 546.047424,484.306580 546.125916,473.192474   C546.130737,472.518158 546.956665,471.849579 547.633911,471.478577  z" data-index="11"/>
<path fill="#CEC6D3" opacity="1.000000" stroke="none" d=" M479.415771,506.595154   C479.005554,495.352264 478.933899,483.872375 478.503662,472.137878   C478.724365,472.543243 479.804443,473.200317 479.808258,473.863586   C479.870758,484.694641 479.797241,495.526489 479.415771,506.595154  z" data-index="12"/>
<path fill="#CEC6D3" opacity="1.000000" stroke="none" d=" M547.292786,584.467041   C547.286560,588.997986 546.768921,593.378601 546.704346,597.765991   C546.609436,604.211243 546.838318,610.661194 546.965210,617.581116   C546.716553,617.059998 546.192200,616.068726 546.184814,615.073608   C546.116638,605.949646 546.108887,596.824768 546.171326,587.700745   C546.179016,586.571960 546.700562,585.446716 547.292786,584.467041  z" data-index="13"/>
<path fill="#CEC6D3" opacity="1.000000" stroke="none" d=" M479.417969,617.804932   C479.079224,607.049255 479.114166,596.073120 479.126221,584.641724   C479.371674,587.206543 479.841553,590.224731 479.869507,593.247009   C479.944580,601.358582 479.830597,609.471863 479.417969,617.804932  z" data-index="14"/>
</svg>